<svg width="100" height="100" viewBox="0 0 100 100" fill="none" xmlns="http://www.w3.org/2000/svg">
<rect x="14" y="14" width="73" height="73" rx="18" fill="black"/>
<path d="M21.7557 45.7784C21.6989 45.1534 21.446 44.6676 20.9972 44.321C20.554 43.9688 19.9205 43.7926 19.0966 43.7926C18.5511 43.7926 18.0966 43.8636 17.733 44.0057C17.3693 44.1477 17.0966 44.3438 16.9148 44.5938C16.733 44.8381 16.6392 45.1193 16.6335 45.4375C16.6222 45.6989 16.6733 45.929 16.7869 46.1278C16.9063 46.3267 17.0767 46.5028 17.2983 46.6562C17.5256 46.804 17.7983 46.9347 18.1165 47.0483C18.4347 47.1619 18.7926 47.2614 19.1903 47.3466L20.6903 47.6875C21.554 47.875 22.3153 48.125 22.9744 48.4375C23.6392 48.75 24.196 49.1222 24.6449 49.554C25.0994 49.9858 25.4432 50.483 25.6761 51.0455C25.9091 51.608 26.0284 52.2386 26.0341 52.9375C26.0284 54.0398 25.75 54.9858 25.1989 55.7756C24.6477 56.5653 23.8551 57.1705 22.821 57.5909C21.7926 58.0114 20.5511 58.2216 19.0966 58.2216C17.6364 58.2216 16.3636 58.0028 15.2784 57.5653C14.1932 57.1278 13.3494 56.4631 12.7472 55.571C12.1449 54.679 11.8352 53.5511 11.8182 52.1875H15.858C15.892 52.75 16.0426 53.2188 16.3097 53.5938C16.5767 53.9688 16.9432 54.2528 17.4091 54.446C17.8807 54.6392 18.4261 54.7358 19.0455 54.7358C19.6136 54.7358 20.0966 54.6591 20.4943 54.5057C20.8977 54.3523 21.2074 54.1392 21.4233 53.8665C21.6392 53.5937 21.75 53.2812 21.7557 52.929C21.75 52.5994 21.6477 52.3182 21.4489 52.0852C21.25 51.8466 20.9432 51.642 20.5284 51.4716C20.1193 51.2955 19.5966 51.1335 18.9602 50.9858L17.1364 50.5597C15.625 50.2131 14.4347 49.6534 13.5653 48.8807C12.696 48.1023 12.2642 47.0511 12.2699 45.7273C12.2642 44.6477 12.554 43.7017 13.1392 42.8892C13.7244 42.0767 14.5341 41.4432 15.5682 40.9886C16.6023 40.5341 17.7813 40.3068 19.1051 40.3068C20.4574 40.3068 21.6307 40.5369 22.625 40.9972C23.625 41.4517 24.4006 42.0909 24.9517 42.9148C25.5028 43.7386 25.7841 44.6932 25.7955 45.7784H21.7557ZM28.1648 58V40.5455H40.3352V43.9716H32.3835V47.5511H39.7131V50.9858H32.3835V54.5739H40.3352V58H28.1648ZM42.9773 58V40.5455H55.1477V43.9716H47.196V47.5511H54.5256V50.9858H47.196V54.5739H55.1477V58H42.9773ZM56.9205 40.5455H61.6335L65.3239 47.8494H65.4773L69.1676 40.5455H73.8807L67.4972 52.1705V58H63.304V52.1705L56.9205 40.5455ZM77.6435 58H73.1094L78.9986 40.5455H84.6151L90.5043 58H85.9702L81.8707 44.9432H81.7344L77.6435 58ZM77.0384 51.1307H86.5156V54.3352H77.0384V51.1307Z" fill="white" fill-opacity="0.97"/>
</svg>
